<svg id="visual" viewBox="0 0 960 540" width="960" height="540" xmlns="http://www.w3.org/2000/svg" xmlns:xlink="http://www.w3.org/1999/xlink" version="1.1"><rect x="0" y="0" width="960" height="540" fill="#101927"></rect><defs><linearGradient id="grad1_0" x1="43.8%" y1="100%" x2="100%" y2="0%"><stop offset="14.444444444444446%" stop-color="#101927" stop-opacity="1"></stop><stop offset="85.55555555555554%" stop-color="#101927" stop-opacity="1"></stop></linearGradient></defs><defs><linearGradient id="grad2_0" x1="0%" y1="100%" x2="56.3%" y2="0%"><stop offset="14.444444444444446%" stop-color="#101927" stop-opacity="1"></stop><stop offset="85.55555555555554%" stop-color="#101927" stop-opacity="1"></stop></linearGradient></defs><g transform="translate(960, 540)"><path d="M-216 0C-204.6 -16.7 -193.2 -33.3 -187.4 -50.2C-181.6 -67.1 -181.4 -84.2 -177.5 -102.5C-173.7 -120.8 -166.2 -140.2 -152.7 -152.7C-139.3 -165.3 -119.9 -171 -102.5 -177.5C-85.1 -184.1 -69.8 -191.5 -53.1 -198C-36.3 -204.6 -18.2 -210.3 0 -216L0 0Z" fill="#3c7bfa"></path></g><g transform="translate(0, 0)"><path d="M216 0C217.6 20.6 219.1 41.2 208.6 55.9C198.2 70.6 175.6 79.3 166.3 96C156.9 112.7 160.8 137.4 151.3 151.3C141.9 165.2 119.1 168.4 101 174.9C82.9 181.5 69.4 191.6 53.3 199C37.3 206.4 18.6 211.2 0 216L0 0Z" fill="#3c7bfa"></path></g></svg>